<svg width="117" height="66" viewBox="0 0 117 66" fill="none" xmlns="http://www.w3.org/2000/svg">
<path d="M4.95703 1.66504H3.22998V7H1.85449V1.66504H0.0615234V0.619141H4.95703V1.66504ZM9.76025 0.619141H11.1401V7H9.76025V4.271H7.12354V7H5.74805V0.619141H7.12354V3.22949H9.76025V0.619141ZM13.9702 3.21191H16.4839V4.20947H13.9702V5.98486H16.8442V7H12.5947V0.619141H16.752V1.63428H13.9702V3.21191ZM22.5615 0.526855C23.5518 0.526855 24.3091 0.808105 24.8335 1.37061C25.3579 1.93018 25.6201 2.73291 25.6201 3.77881C25.6201 4.84814 25.3594 5.66553 24.8379 6.23096C24.3164 6.79639 23.5576 7.0791 22.5615 7.0791C21.5596 7.0791 20.7993 6.79785 20.2808 6.23535C19.7622 5.66992 19.5029 4.85107 19.5029 3.77881C19.5029 2.73584 19.7651 1.93311 20.2896 1.37061C20.814 0.808105 21.5713 0.526855 22.5615 0.526855ZM22.5615 1.60791C22.0166 1.60791 21.6064 1.79102 21.3311 2.15723C21.0586 2.52344 20.9224 3.06396 20.9224 3.77881C20.9224 4.50537 21.0601 5.05762 21.3354 5.43555C21.6138 5.81348 22.0225 6.00244 22.5615 6.00244C23.1006 6.00244 23.5078 5.81348 23.7832 5.43555C24.0615 5.05762 24.2007 4.50537 24.2007 3.77881C24.2007 3.06982 24.0615 2.53076 23.7832 2.16162C23.5078 1.79248 23.1006 1.60791 22.5615 1.60791ZM28.0327 7H26.6748V0.619141H28.8633C29.6602 0.619141 30.271 0.789062 30.6958 1.12891C31.1235 1.46582 31.3374 1.95947 31.3374 2.60986C31.3374 3.01123 31.2349 3.3584 31.0298 3.65137C30.8247 3.94434 30.5332 4.16992 30.1553 4.32812L31.5527 7H30.085L28.916 4.56982H28.0327V7ZM28.8062 3.58105C29.2017 3.58105 29.4932 3.50195 29.6807 3.34375C29.8711 3.18262 29.9663 2.93799 29.9663 2.60986C29.9663 2.27295 29.8711 2.02686 29.6807 1.87158C29.4932 1.71338 29.2017 1.63428 28.8062 1.63428H28.0327V3.58105H28.8062ZM32.4756 0.619141H33.8511V7H32.4756V0.619141ZM40.2188 6.60449C39.8818 6.75391 39.5229 6.86963 39.1421 6.95166C38.7612 7.03076 38.3877 7.07031 38.0215 7.07031C37.0312 7.07031 36.2651 6.7876 35.7231 6.22217C35.1812 5.65381 34.9102 4.85107 34.9102 3.81396C34.9102 2.771 35.1899 1.96533 35.7495 1.39697C36.312 0.825684 37.106 0.540039 38.1313 0.540039C38.4917 0.540039 38.8521 0.583984 39.2124 0.671875C39.5728 0.756836 39.8965 0.876953 40.1836 1.03223L39.7793 2.00342C39.4746 1.87744 39.208 1.78662 38.9795 1.73096C38.751 1.67236 38.5225 1.64307 38.2939 1.64307C37.6465 1.64307 37.1558 1.82471 36.8218 2.18799C36.4878 2.55127 36.3208 3.08447 36.3208 3.7876C36.3208 4.48486 36.4746 5.02539 36.7822 5.40918C37.0928 5.79297 37.5308 5.98486 38.0962 5.98486C38.3833 5.98486 38.6646 5.94531 38.9399 5.86621V3.76123H40.2188V6.60449ZM41.3701 0.619141H42.7456V7H41.3701V0.619141ZM46.4414 4.17432C46.2305 3.87549 45.9009 3.34375 45.4526 2.5791V7H44.2002V0.619141H45.29L47.2324 3.39209C47.4785 3.74072 47.8213 4.27979 48.2607 5.00928V0.619141H49.5176V7H48.4189L46.4414 4.17432ZM52.1719 5.36084L51.6533 7H50.2998L52.3696 0.619141H54.189L56.3115 7H54.98L54.4395 5.36084H52.1719ZM53.2617 1.79688L52.4795 4.3457H54.1274L53.3232 1.79688H53.2617ZM61.0884 7H57.0938V0.619141H58.4077V5.9541H61.0884V7Z" fill="#424242"/>
<path d="M1.94531 14.9844H5.61328V32H1.94531V14.9844ZM15.4688 24.4648C14.9062 23.668 14.0273 22.25 12.832 20.2109V32H9.49219V14.9844H12.3984L17.5781 22.3789C18.2344 23.3086 19.1484 24.7461 20.3203 26.6914V14.9844H23.6719V32H20.7422L15.4688 24.4648ZM31.207 22.0156H37.5V24.7812H31.207V32H27.5391V14.9844H38.4844V17.7383H31.207V22.0156ZM44.4258 32H40.8047V14.9844H46.6406C48.7656 14.9844 50.3945 15.4375 51.5273 16.3438C52.668 17.2422 53.2383 18.5586 53.2383 20.293C53.2383 21.3633 52.9648 22.2891 52.418 23.0703C51.8711 23.8516 51.0938 24.4531 50.0859 24.875L53.8125 32H49.8984L46.7812 25.5195H44.4258V32ZM46.4883 22.8828C47.543 22.8828 48.3203 22.6719 48.8203 22.25C49.3281 21.8203 49.582 21.168 49.582 20.293C49.582 19.3945 49.3281 18.7383 48.8203 18.3242C48.3203 17.9023 47.543 17.6914 46.4883 17.6914H44.4258V22.8828H46.4883ZM59.4844 27.6289L58.1016 32H54.4922L60.0117 14.9844H64.8633L70.5234 32H66.9727L65.5312 27.6289H59.4844ZM62.3906 18.125L60.3047 24.9219H64.6992L62.5547 18.125H62.3906ZM76.2305 32H72.6094V14.9844H78.4453C80.5703 14.9844 82.1992 15.4375 83.332 16.3438C84.4727 17.2422 85.043 18.5586 85.043 20.293C85.043 21.3633 84.7695 22.2891 84.2227 23.0703C83.6758 23.8516 82.8984 24.4531 81.8906 24.875L85.6172 32H81.7031L78.5859 25.5195H76.2305V32ZM78.293 22.8828C79.3477 22.8828 80.125 22.6719 80.625 22.25C81.1328 21.8203 81.3867 21.168 81.3867 20.293C81.3867 19.3945 81.1328 18.7383 80.625 18.3242C80.125 17.9023 79.3477 17.6914 78.293 17.6914H76.2305V22.8828H78.293ZM91.7461 21.8984H98.4492V24.5586H91.7461V29.293H99.4102V32H88.0781V14.9844H99.1641V17.6914H91.7461V21.8984ZM107.871 14.9844C110.801 14.9844 113.004 15.6914 114.48 17.1055C115.965 18.5195 116.707 20.6211 116.707 23.4102C116.707 26.2227 115.957 28.3594 114.457 29.8203C112.965 31.2734 110.77 32 107.871 32H102.164V14.9844H107.871ZM108.117 29.2695C109.703 29.2695 110.902 28.7812 111.715 27.8047C112.527 26.8281 112.934 25.3789 112.934 23.457C112.934 21.5664 112.531 20.1406 111.727 19.1797C110.922 18.2188 109.719 17.7383 108.117 17.7383H105.785V29.2695H108.117Z" fill="#E47F36"/>
<path d="M5.42083 37.3313C6.455 37.3256 7.61846 37.5525 8.91118 38.0121L8.36824 40.0805C7.16744 39.6553 6.19071 39.4427 5.43806 39.4427C4.82904 39.4427 4.3493 39.5634 3.99883 39.8047C3.64836 40.046 3.47312 40.3735 3.47312 40.7872C3.47312 41.2353 3.63399 41.5915 3.95574 41.8558C4.28323 42.1201 4.87788 42.3643 5.7397 42.5884C7.00944 42.9159 7.91147 43.3698 8.4458 43.95C8.98013 44.5246 9.24729 45.3175 9.24729 46.3287C9.24729 47.5524 8.83362 48.4918 8.00627 49.1468C7.18468 49.796 6.00973 50.1207 4.48145 50.1207C3.23468 50.1207 1.89887 49.8391 0.473999 49.2761L1.11174 47.268C1.89887 47.5496 2.54236 47.7478 3.04221 47.8627C3.54207 47.9719 4.01606 48.0264 4.46421 48.0264C5.11344 48.0264 5.6133 47.8885 5.96377 47.6128C6.31999 47.3312 6.4981 46.9434 6.4981 46.4493C6.4981 46.1333 6.4234 45.869 6.27402 45.6564C6.12464 45.4439 5.87184 45.2543 5.51562 45.0876C5.15941 44.9153 4.64519 44.7458 3.97297 44.5792C2.85261 44.3091 2.03389 43.8897 1.5168 43.3209C0.999707 42.7521 0.741162 42.0023 0.741162 41.0716C0.741162 39.8823 1.14909 38.963 1.96494 38.3138C2.78654 37.6588 3.9385 37.3313 5.42083 37.3313ZM13.5305 46.7854L12.5136 50H9.85918L13.9183 37.4864H17.4863L21.6488 50H19.0375L17.9775 46.7854H13.5305ZM15.6678 39.7961L14.1338 44.7946H17.3656L15.7885 39.7961H15.6678ZM33.1972 45.7254C33.1972 47.1732 32.749 48.2764 31.8527 49.0348C30.9564 49.7932 29.6608 50.1724 27.9659 50.1724C26.2481 50.1724 24.9467 49.796 24.0619 49.0434C23.1829 48.2907 22.7433 47.1847 22.7433 45.7254V37.4864H25.4494V45.7599C25.4494 47.2767 26.2883 48.0379 27.9659 48.0437C29.6494 48.0437 30.4911 47.2824 30.4911 45.7599V37.4864H33.1972V45.7254ZM40.1779 44.4585C39.7642 43.8725 39.1178 42.8297 38.2388 41.3301V50H35.7826V37.4864H37.9199L41.7291 42.9245C42.2118 43.6082 42.884 44.6654 43.7458 46.096V37.4864H46.2106V50H44.0561L40.1779 44.4585ZM51.416 46.7854L50.399 50H47.7446L51.8038 37.4864H55.3717L59.5343 50H56.923L55.8629 46.7854H51.416ZM53.5533 39.7961L52.0192 44.7946H55.251L53.6739 39.7961H53.5533ZM69.2039 37.4864C70.7321 37.4864 71.9013 37.8254 72.7114 38.5034C73.5216 39.1756 73.9266 40.1552 73.9266 41.4422C73.9266 42.6889 73.5158 43.6599 72.6942 44.3551C71.8726 45.0446 70.7264 45.3893 69.2556 45.3893H67.575V50H64.912V37.4864H69.2039ZM69.0918 43.4157C69.8215 43.4157 70.3644 43.2549 70.7207 42.9331C71.0826 42.6056 71.2636 42.1086 71.2636 41.4422C71.2636 40.7699 71.0855 40.2758 70.7293 39.9598C70.3788 39.6381 69.833 39.4772 69.0918 39.4772H67.575V43.4157H69.0918ZM77.3394 46.7854L76.3225 50H73.6681L77.7272 37.4864H81.2951L85.4577 50H82.8464L81.7864 46.7854H77.3394ZM79.4767 39.7961L77.9427 44.7946H81.1745L79.5974 39.7961H79.4767ZM89.6548 50H86.9917V37.4864H91.2836C92.8464 37.4864 94.0443 37.8197 94.8774 38.4861C95.7162 39.1469 96.1356 40.115 96.1356 41.3905C96.1356 42.1776 95.9345 42.8584 95.5323 43.433C95.1302 44.0075 94.5585 44.4499 93.8173 44.7602L96.5579 50H93.6794L91.387 45.2342H89.6548V50ZM91.1716 43.2951C91.9472 43.2951 92.5189 43.1399 92.8866 42.8297C93.26 42.5137 93.4468 42.0339 93.4468 41.3905C93.4468 40.7297 93.26 40.2471 92.8866 39.9426C92.5189 39.6323 91.9472 39.4772 91.1716 39.4772H89.6548V43.2951H91.1716ZM106.4 39.5375H103.013V50H100.315V39.5375H96.7992V37.4864H106.4V39.5375ZM111.683 37.3313C112.717 37.3256 113.88 37.5525 115.173 38.0121L114.63 40.0805C113.429 39.6553 112.453 39.4427 111.7 39.4427C111.091 39.4427 110.611 39.5634 110.261 39.8047C109.91 40.046 109.735 40.3735 109.735 40.7872C109.735 41.2353 109.896 41.5915 110.218 41.8558C110.545 42.1201 111.14 42.3643 112.002 42.5884C113.271 42.9159 114.173 43.3698 114.708 43.95C115.242 44.5246 115.509 45.3175 115.509 46.3287C115.509 47.5524 115.096 48.4918 114.268 49.1468C113.447 49.796 112.272 50.1207 110.743 50.1207C109.497 50.1207 108.161 49.8391 106.736 49.2761L107.374 47.268C108.161 47.5496 108.804 47.7478 109.304 47.8627C109.804 47.9719 110.278 48.0264 110.726 48.0264C111.375 48.0264 111.875 47.8885 112.226 47.6128C112.582 47.3312 112.76 46.9434 112.76 46.4493C112.76 46.1333 112.685 45.869 112.536 45.6564C112.387 45.4439 112.134 45.2543 111.778 45.0876C111.421 44.9153 110.907 44.7458 110.235 44.5792C109.115 44.3091 108.296 43.8897 107.779 43.3209C107.262 42.7521 107.003 42.0023 107.003 41.0716C107.003 39.8823 107.411 38.963 108.227 38.3138C109.049 37.6588 110.2 37.3313 111.683 37.3313Z" fill="black"/>
<path d="M81.6167 61.2119H84.1304V62.2095H81.6167V63.9849H84.4907V65H80.2412V58.6191H84.3984V59.6343H81.6167V61.2119ZM87.5581 58.54C88.0854 58.5371 88.6787 58.6528 89.3379 58.8872L89.061 59.9419C88.4487 59.7251 87.9507 59.6167 87.5669 59.6167C87.2563 59.6167 87.0117 59.6782 86.833 59.8013C86.6543 59.9243 86.5649 60.0913 86.5649 60.3022C86.5649 60.5308 86.647 60.7124 86.811 60.8472C86.978 60.9819 87.2812 61.1064 87.7207 61.2207C88.3682 61.3877 88.8281 61.6191 89.1006 61.915C89.373 62.208 89.5093 62.6123 89.5093 63.1279C89.5093 63.752 89.2983 64.231 88.8765 64.5649C88.4575 64.896 87.8584 65.0615 87.0791 65.0615C86.4434 65.0615 85.7622 64.918 85.0356 64.6309L85.3608 63.6069C85.7622 63.7505 86.0903 63.8516 86.3452 63.9102C86.6001 63.9658 86.8418 63.9937 87.0703 63.9937C87.4014 63.9937 87.6562 63.9233 87.835 63.7827C88.0166 63.6392 88.1074 63.4414 88.1074 63.1895C88.1074 63.0283 88.0693 62.8936 87.9932 62.7852C87.917 62.6768 87.7881 62.5801 87.6064 62.4951C87.4248 62.4072 87.1626 62.3208 86.8198 62.2358C86.2485 62.0981 85.8311 61.8843 85.5674 61.5942C85.3037 61.3042 85.1719 60.9219 85.1719 60.4473C85.1719 59.8408 85.3799 59.3721 85.7959 59.041C86.2148 58.707 86.8022 58.54 87.5581 58.54ZM94.5498 59.665H92.8228V65H91.4473V59.665H89.6543V58.6191H94.5498V59.665ZM95.9692 63.6597V65H94.5806V63.6597H95.9692ZM98.6675 58.5928C99.1187 58.5928 99.5112 58.6733 99.8452 58.8345C100.182 58.9956 100.441 59.2285 100.623 59.5332C100.808 59.835 100.9 60.1865 100.9 60.5879C100.9 60.9072 100.856 61.1929 100.768 61.4448C100.683 61.6968 100.526 61.9678 100.298 62.2578C100.069 62.5449 99.7427 62.8862 99.3179 63.2817L98.4785 64.0376C99.2168 64.0376 100.069 63.9805 101.036 63.8662V65H96.8789L96.8306 64.1167L97.9556 63.0576C98.5386 62.5596 98.9414 62.1318 99.1641 61.7744C99.3867 61.417 99.498 61.0435 99.498 60.6538C99.498 60.3345 99.397 60.0884 99.1948 59.9155C98.9927 59.7397 98.71 59.6519 98.3467 59.6519C98.1416 59.6519 97.9219 59.6797 97.6875 59.7354C97.4531 59.7881 97.2378 59.8628 97.0415 59.9595L96.8394 58.9707C97.4224 58.7188 98.0317 58.5928 98.6675 58.5928ZM104.292 58.5488C105.11 58.5488 105.727 58.8242 106.143 59.375C106.562 59.9258 106.771 60.7329 106.771 61.7964C106.771 62.8657 106.559 63.6787 106.134 64.2354C105.712 64.792 105.098 65.0703 104.292 65.0703C103.49 65.0703 102.876 64.792 102.451 64.2354C102.029 63.6758 101.818 62.8628 101.818 61.7964C101.818 60.7358 102.026 59.9302 102.442 59.3794C102.861 58.8257 103.478 58.5488 104.292 58.5488ZM104.292 59.5376C103.897 59.5376 103.601 59.7222 103.405 60.0913C103.211 60.4604 103.115 61.0288 103.115 61.7964C103.115 62.5757 103.211 63.1514 103.405 63.5234C103.601 63.8955 103.897 64.0815 104.292 64.0815C104.688 64.0815 104.984 63.8955 105.18 63.5234C105.376 63.1514 105.475 62.5757 105.475 61.7964C105.475 61.0288 105.376 60.4604 105.18 60.0913C104.987 59.7222 104.691 59.5376 104.292 59.5376ZM110.067 58.5488C110.884 58.5488 111.501 58.8242 111.917 59.375C112.336 59.9258 112.545 60.7329 112.545 61.7964C112.545 62.8657 112.333 63.6787 111.908 64.2354C111.486 64.792 110.873 65.0703 110.067 65.0703C109.264 65.0703 108.65 64.792 108.226 64.2354C107.804 63.6758 107.593 62.8628 107.593 61.7964C107.593 60.7358 107.801 59.9302 108.217 59.3794C108.636 58.8257 109.252 58.5488 110.067 58.5488ZM110.067 59.5376C109.671 59.5376 109.375 59.7222 109.179 60.0913C108.986 60.4604 108.889 61.0288 108.889 61.7964C108.889 62.5757 108.986 63.1514 109.179 63.5234C109.375 63.8955 109.671 64.0815 110.067 64.0815C110.462 64.0815 110.758 63.8955 110.955 63.5234C111.151 63.1514 111.249 62.5757 111.249 61.7964C111.249 61.0288 111.151 60.4604 110.955 60.0913C110.761 59.7222 110.465 59.5376 110.067 59.5376ZM116.03 58.6982V65H114.699V59.7881L113.222 60.1748L113.007 59.4365L115.187 58.5752L116.03 58.6982Z" fill="#313131"/>
</svg>
